solid PythonSCAD_Model
  facet normal -0.36278404373897033 -0.36278404373897033 -0.8583562635740487
    outer loop
      vertex -12.388228567653782 -7.67243160412604 -4.897777478867205
      vertex -13.060660171779821 -8.837117307087384 -4.121320343559643
      vertex -13.837117307087384 -8.060660171779821 -4.121320343559643
    endloop
  endfacet
  facet normal -0.4955722198350773 -0.1327881760961096 -0.8583562635740491
    outer loop
      vertex -12.776457135307563 -7 -4.897777478867205
      vertex -12.67243160412604 -7.3882285676537816 -4.897777478867205
      vertex -13.837117307087384 -8.060660171779821 -4.121320343559643
    endloop
  endfacet
  facet normal -0.13278817609610766 -0.4955722198350785 -0.8583562635740487
    outer loop
      vertex -12 -7.776457135307562 -4.897777478867205
      vertex -13.060660171779821 -8.837117307087384 -4.121320343559643
      vertex -12.388228567653782 -7.67243160412604 -4.897777478867205
    endloop
  endfacet
  facet normal -0.1327881760961076 -0.4955722198350785 -0.8583562635740486
    outer loop
      vertex -12 -9.121320343559642 -4.121320343559643
      vertex -13.060660171779821 -8.837117307087384 -4.121320343559643
      vertex -12 -7.776457135307562 -4.897777478867205
    endloop
  endfacet
  facet normal -0.3627840437389707 -0.3627840437389696 -0.8583562635740488
    outer loop
      vertex -13.837117307087384 -8.060660171779821 -4.121320343559643
      vertex -12.67243160412604 -7.3882285676537816 -4.897777478867205
      vertex -12.388228567653782 -7.67243160412604 -4.897777478867205
    endloop
  endfacet
  facet normal -0.6175653985824953 -0.6175653985824953 -0.48705847384814843
    outer loop
      vertex -13.060660171779821 -8.837117307087384 -4.121320343559643
      vertex -13.448888739433603 -9.509548911213423 -2.776457135307562
      vertex -13.837117307087384 -8.060660171779821 -4.121320343559643
    endloop
  endfacet
  facet normal -0.6175653985824954 -0.6175653985824954 -0.4870584738481485
    outer loop
      vertex -13.837117307087384 -8.060660171779821 -4.121320343559643
      vertex -13.448888739433603 -9.509548911213423 -2.776457135307562
      vertex -14.509548911213423 -8.448888739433603 -2.776457135307562
    endloop
  endfacet
  facet normal -0.8436100229619509 -0.22604462437945586 -0.4870584738481483
    outer loop
      vertex -14.897777478867205 -7 -2.776457135307562
      vertex -13.837117307087384 -8.060660171779821 -4.121320343559643
      vertex -14.509548911213423 -8.448888739433603 -2.776457135307562
    endloop
  endfacet
  facet normal -0.2260446243794548 -0.8436100229619509 -0.48705847384814904
    outer loop
      vertex -12 -9.897777478867205 -2.776457135307562
      vertex -13.060660171779821 -8.837117307087384 -4.121320343559643
      vertex -12 -9.121320343559642 -4.121320343559643
    endloop
  endfacet
  facet normal -0.22604462437945586 -0.8436100229619509 -0.4870584738481483
    outer loop
      vertex -12 -9.897777478867205 -2.776457135307562
      vertex -13.448888739433603 -9.509548911213423 -2.776457135307562
      vertex -13.060660171779821 -8.837117307087384 -4.121320343559643
    endloop
  endfacet
  facet normal -0.4955722198350788 -0.13278817609610769 -0.8583562635740485
    outer loop
      vertex -14.121320343559642 -7 -4.121320343559643
      vertex -12.776457135307563 -7 -4.897777478867205
      vertex -13.837117307087384 -8.060660171779821 -4.121320343559643
    endloop
  endfacet
  facet normal -0.8436100229619509 -0.2260446243794548 -0.48705847384814904
    outer loop
      vertex -14.897777478867205 -7 -2.776457135307562
      vertex -14.121320343559642 -7 -4.121320343559643
      vertex -13.837117307087384 -8.060660171779821 -4.121320343559643
    endloop
  endfacet
  facet normal -0.7071067811865476 -0.7071067811865476 0
    outer loop
      vertex -14.509548911213423 -8.448888739433603 -2.776457135307562
      vertex -13.448888739433603 -9.509548911213423 -2.776457135307562
      vertex -14.509548911213423 -8.448888739433603 2.776457135307562
    endloop
  endfacet
  facet normal -0.9659258262890682 -0.258819045102521 0
    outer loop
      vertex -14.509548911213423 -8.448888739433603 -2.776457135307562
      vertex -14.509548911213423 -8.448888739433603 2.776457135307562
      vertex -14.897777478867205 -7 -2.776457135307562
    endloop
  endfacet
  facet normal -0.258819045102521 -0.9659258262890682 0
    outer loop
      vertex -12 -9.897777478867205 2.776457135307562
      vertex -13.448888739433603 -9.509548911213423 -2.776457135307562
      vertex -12 -9.897777478867205 -2.776457135307562
    endloop
  endfacet
  facet normal -0.5000000000000003 0 -0.8660254037844384
    outer loop
      vertex -14.121320343559642 -7 -4.121320343559643
      vertex -14.121320343559642 7 -4.121320343559643
      vertex -12.776457135307563 -7 -4.897777478867205
    endloop
  endfacet
  facet normal -0.8660254037844385 0 -0.5000000000000003
    outer loop
      vertex -14.897777478867205 -7 -2.776457135307562
      vertex -14.121320343559642 7 -4.121320343559643
      vertex -14.121320343559642 -7 -4.121320343559643
    endloop
  endfacet
  facet normal 0 -0.5000000000000001 -0.8660254037844385
    outer loop
      vertex -12 -9.121320343559642 -4.121320343559643
      vertex -12 -7.776457135307562 -4.897777478867205
      vertex 12 -9.121320343559642 -4.121320343559643
    endloop
  endfacet
  facet normal 0 0 -1
    outer loop
      vertex -12.67243160412604 -7.3882285676537816 -4.897777478867205
      vertex 12.67243160412604 -7.3882285676537816 -4.897777478867205
      vertex -12.388228567653782 -7.67243160412604 -4.897777478867205
    endloop
  endfacet
  facet normal 0 0 -1
    outer loop
      vertex -12.388228567653782 -7.67243160412604 -4.897777478867205
      vertex 12.67243160412604 -7.3882285676537816 -4.897777478867205
      vertex -12 -7.776457135307562 -4.897777478867205
    endloop
  endfacet
  facet normal 0 -0.8660254037844385 -0.5000000000000003
    outer loop
      vertex 12 -9.121320343559642 -4.121320343559643
      vertex -12 -9.897777478867205 -2.776457135307562
      vertex -12 -9.121320343559642 -4.121320343559643
    endloop
  endfacet
  facet normal 0 0 -1
    outer loop
      vertex -12.776457135307563 -7 -4.897777478867205
      vertex 12.67243160412604 -7.3882285676537816 -4.897777478867205
      vertex -12.67243160412604 -7.3882285676537816 -4.897777478867205
    endloop
  endfacet
  facet normal 0 0 -1
    outer loop
      vertex -12.776457135307563 7 -4.897777478867205
      vertex 12.67243160412604 -7.3882285676537816 -4.897777478867205
      vertex -12.776457135307563 -7 -4.897777478867205
    endloop
  endfacet
  facet normal -0.7071067811865476 -0.7071067811865476 0
    outer loop
      vertex -14.509548911213423 -8.448888739433603 2.776457135307562
      vertex -13.448888739433603 -9.509548911213423 -2.776457135307562
      vertex -13.448888739433603 -9.509548911213423 2.776457135307562
    endloop
  endfacet
  facet normal -0.9659258262890682 -0.258819045102521 0
    outer loop
      vertex -14.897777478867205 -7 -2.776457135307562
      vertex -14.509548911213423 -8.448888739433603 2.776457135307562
      vertex -14.897777478867205 -7 2.776457135307562
    endloop
  endfacet
  facet normal -0.258819045102521 -0.9659258262890682 0
    outer loop
      vertex -13.448888739433603 -9.509548911213423 2.776457135307562
      vertex -13.448888739433603 -9.509548911213423 -2.776457135307562
      vertex -12 -9.897777478867205 2.776457135307562
    endloop
  endfacet
  facet normal -0.6175653985824954 -0.6175653985824954 0.4870584738481485
    outer loop
      vertex -13.448888739433603 -9.509548911213423 2.776457135307562
      vertex -13.060660171779821 -8.837117307087384 4.121320343559643
      vertex -14.509548911213423 -8.448888739433603 2.776457135307562
    endloop
  endfacet
  facet normal -0.8436100229619509 -0.22604462437945586 0.4870584738481483
    outer loop
      vertex -14.509548911213423 -8.448888739433603 2.776457135307562
      vertex -13.837117307087384 -8.060660171779821 4.121320343559643
      vertex -14.897777478867205 -7 2.776457135307562
    endloop
  endfacet
  facet normal -0.6175653985824953 -0.6175653985824952 0.48705847384814854
    outer loop
      vertex -14.509548911213423 -8.448888739433603 2.776457135307562
      vertex -13.060660171779821 -8.837117307087384 4.121320343559643
      vertex -13.837117307087384 -8.060660171779821 4.121320343559643
    endloop
  endfacet
  facet normal -0.22604462437945586 -0.8436100229619509 0.4870584738481483
    outer loop
      vertex -12 -9.897777478867205 2.776457135307562
      vertex -13.060660171779821 -8.837117307087384 4.121320343559643
      vertex -13.448888739433603 -9.509548911213423 2.776457135307562
    endloop
  endfacet
  facet normal -0.2260446243794548 -0.8436100229619509 0.48705847384814904
    outer loop
      vertex -12 -9.897777478867205 2.776457135307562
      vertex -12 -9.121320343559642 4.121320343559643
      vertex -13.060660171779821 -8.837117307087384 4.121320343559643
    endloop
  endfacet
  facet normal -0.36278404373897033 -0.36278404373897033 0.8583562635740487
    outer loop
      vertex -13.060660171779821 -8.837117307087384 4.121320343559643
      vertex -12.388228567653782 -7.67243160412604 4.897777478867205
      vertex -13.837117307087384 -8.060660171779821 4.121320343559643
    endloop
  endfacet
  facet normal -0.4955722198350772 -0.13278817609610946 0.8583562635740491
    outer loop
      vertex -13.837117307087384 -8.060660171779821 4.121320343559643
      vertex -12.67243160412604 -7.3882285676537816 4.897777478867205
      vertex -12.776457135307563 -7 4.897777478867205
    endloop
  endfacet
  facet normal -0.1327881760961076 -0.4955722198350785 0.8583562635740486
    outer loop
      vertex -13.060660171779821 -8.837117307087384 4.121320343559643
      vertex -12 -9.121320343559642 4.121320343559643
      vertex -12 -7.776457135307562 4.897777478867205
    endloop
  endfacet
  facet normal -0.13278817609610766 -0.4955722198350785 0.8583562635740487
    outer loop
      vertex -12 -7.776457135307562 4.897777478867205
      vertex -12.388228567653782 -7.67243160412604 4.897777478867205
      vertex -13.060660171779821 -8.837117307087384 4.121320343559643
    endloop
  endfacet
  facet normal -0.36278404373897066 -0.36278404373896955 0.8583562635740488
    outer loop
      vertex -12.388228567653782 -7.67243160412604 4.897777478867205
      vertex -12.67243160412604 -7.3882285676537816 4.897777478867205
      vertex -13.837117307087384 -8.060660171779821 4.121320343559643
    endloop
  endfacet
  facet normal -0.8436100229619509 -0.2260446243794548 0.48705847384814904
    outer loop
      vertex -14.897777478867205 -7 2.776457135307562
      vertex -13.837117307087384 -8.060660171779821 4.121320343559643
      vertex -14.121320343559642 -7 4.121320343559643
    endloop
  endfacet
  facet normal -0.49557221983507876 -0.13278817609610766 0.8583562635740486
    outer loop
      vertex -13.837117307087384 -8.060660171779821 4.121320343559643
      vertex -12.776457135307563 -7 4.897777478867205
      vertex -14.121320343559642 -7 4.121320343559643
    endloop
  endfacet
  facet normal -1 0 0
    outer loop
      vertex -14.897777478867205 -7 2.776457135307562
      vertex -14.897777478867205 7 2.776457135307562
      vertex -14.897777478867205 -7 -2.776457135307562
    endloop
  endfacet
  facet normal 0 0 1
    outer loop
      vertex -12.388228567653782 -7.67243160412604 4.897777478867205
      vertex -12.67243160412604 7.3882285676537816 4.897777478867205
      vertex -12.67243160412604 -7.3882285676537816 4.897777478867205
    endloop
  endfacet
  facet normal 0 0 1
    outer loop
      vertex -12 -7.776457135307562 4.897777478867205
      vertex -12.67243160412604 7.3882285676537816 4.897777478867205
      vertex -12.388228567653782 -7.67243160412604 4.897777478867205
    endloop
  endfacet
  facet normal -0.8660254037844385 0 0.5000000000000003
    outer loop
      vertex -14.121320343559642 -7 4.121320343559643
      vertex -14.121320343559642 7 4.121320343559643
      vertex -14.897777478867205 -7 2.776457135307562
    endloop
  endfacet
  facet normal -0.5000000000000003 0 0.8660254037844384
    outer loop
      vertex -14.121320343559642 -7 4.121320343559643
      vertex -12.776457135307563 -7 4.897777478867205
      vertex -14.121320343559642 7 4.121320343559643
    endloop
  endfacet
  facet normal 0 0 1
    outer loop
      vertex -12.67243160412604 -7.3882285676537816 4.897777478867205
      vertex -12.67243160412604 7.3882285676537816 4.897777478867205
      vertex -12.776457135307563 -7 4.897777478867205
    endloop
  endfacet
  facet normal 0 -1 0
    outer loop
      vertex -12 -9.897777478867205 -2.776457135307562
      vertex 12 -9.897777478867205 2.776457135307562
      vertex -12 -9.897777478867205 2.776457135307562
    endloop
  endfacet
  facet normal 0 -0.8660254037844385 0.5000000000000003
    outer loop
      vertex 12 -9.897777478867205 2.776457135307562
      vertex -12 -9.121320343559642 4.121320343559643
      vertex -12 -9.897777478867205 2.776457135307562
    endloop
  endfacet
  facet normal 0 -0.5000000000000001 0.8660254037844385
    outer loop
      vertex -12 -7.776457135307562 4.897777478867205
      vertex -12 -9.121320343559642 4.121320343559643
      vertex 12 -7.776457135307562 4.897777478867205
    endloop
  endfacet
  facet normal 0 0 1
    outer loop
      vertex 12 -7.776457135307562 4.897777478867205
      vertex -12.67243160412604 7.3882285676537816 4.897777478867205
      vertex -12 -7.776457135307562 4.897777478867205
    endloop
  endfacet
  facet normal -0.5000000000000003 0 -0.8660254037844384
    outer loop
      vertex -12.776457135307563 -7 -4.897777478867205
      vertex -14.121320343559642 7 -4.121320343559643
      vertex -12.776457135307563 7 -4.897777478867205
    endloop
  endfacet
  facet normal -0.8660254037844385 0 -0.5000000000000003
    outer loop
      vertex -14.897777478867205 7 -2.776457135307562
      vertex -14.121320343559642 7 -4.121320343559643
      vertex -14.897777478867205 -7 -2.776457135307562
    endloop
  endfacet
  facet normal -1 0 0
    outer loop
      vertex -14.897777478867205 -7 -2.776457135307562
      vertex -14.897777478867205 7 2.776457135307562
      vertex -14.897777478867205 7 -2.776457135307562
    endloop
  endfacet
  facet normal -0.4955722198350788 0.1327881760961077 -0.8583562635740485
    outer loop
      vertex -12.776457135307563 7 -4.897777478867205
      vertex -14.121320343559642 7 -4.121320343559643
      vertex -13.837117307087384 8.060660171779821 -4.121320343559643
    endloop
  endfacet
  facet normal -0.8436100229619509 0.22604462437945477 -0.48705847384814904
    outer loop
      vertex -13.837117307087384 8.060660171779821 -4.121320343559643
      vertex -14.121320343559642 7 -4.121320343559643
      vertex -14.897777478867205 7 -2.776457135307562
    endloop
  endfacet
  facet normal -0.4955722198350772 0.13278817609610946 -0.8583562635740491
    outer loop
      vertex -13.837117307087384 8.060660171779821 -4.121320343559643
      vertex -12.67243160412604 7.3882285676537816 -4.897777478867205
      vertex -12.776457135307563 7 -4.897777478867205
    endloop
  endfacet
  facet normal -0.36278404373897033 0.36278404373897033 -0.8583562635740487
    outer loop
      vertex -13.060660171779821 8.837117307087384 -4.121320343559643
      vertex -12.388228567653782 7.67243160412604 -4.897777478867205
      vertex -13.837117307087384 8.060660171779821 -4.121320343559643
    endloop
  endfacet
  facet normal -0.36278404373897066 0.36278404373896955 -0.8583562635740488
    outer loop
      vertex -12.388228567653782 7.67243160412604 -4.897777478867205
      vertex -12.67243160412604 7.3882285676537816 -4.897777478867205
      vertex -13.837117307087384 8.060660171779821 -4.121320343559643
    endloop
  endfacet
  facet normal -0.13278817609610766 0.4955722198350785 -0.8583562635740487
    outer loop
      vertex -12 7.776457135307562 -4.897777478867205
      vertex -12.388228567653782 7.67243160412604 -4.897777478867205
      vertex -13.060660171779821 8.837117307087384 -4.121320343559643
    endloop
  endfacet
  facet normal -0.13278817609610763 0.4955722198350785 -0.8583562635740486
    outer loop
      vertex -12 7.776457135307562 -4.897777478867205
      vertex -13.060660171779821 8.837117307087384 -4.121320343559643
      vertex -12 9.121320343559642 -4.121320343559643
    endloop
  endfacet
  facet normal -0.8436100229619509 0.22604462437945586 -0.4870584738481483
    outer loop
      vertex -14.897777478867205 7 -2.776457135307562
      vertex -14.509548911213423 8.448888739433603 -2.776457135307562
      vertex -13.837117307087384 8.060660171779821 -4.121320343559643
    endloop
  endfacet
  facet normal -0.6175653985824953 0.6175653985824952 -0.48705847384814854
    outer loop
      vertex -14.509548911213423 8.448888739433603 -2.776457135307562
      vertex -13.060660171779821 8.837117307087384 -4.121320343559643
      vertex -13.837117307087384 8.060660171779821 -4.121320343559643
    endloop
  endfacet
  facet normal -0.6175653985824954 0.6175653985824954 -0.4870584738481485
    outer loop
      vertex -13.448888739433603 9.509548911213423 -2.776457135307562
      vertex -13.060660171779821 8.837117307087384 -4.121320343559643
      vertex -14.509548911213423 8.448888739433603 -2.776457135307562
    endloop
  endfacet
  facet normal -0.22604462437945477 0.8436100229619509 -0.48705847384814904
    outer loop
      vertex -12 9.121320343559642 -4.121320343559643
      vertex -13.060660171779821 8.837117307087384 -4.121320343559643
      vertex -12 9.897777478867205 -2.776457135307562
    endloop
  endfacet
  facet normal -0.22604462437945586 0.8436100229619509 -0.4870584738481483
    outer loop
      vertex -12 9.897777478867205 -2.776457135307562
      vertex -13.060660171779821 8.837117307087384 -4.121320343559643
      vertex -13.448888739433603 9.509548911213423 -2.776457135307562
    endloop
  endfacet
  facet normal -0.9659258262890682 0.258819045102521 0
    outer loop
      vertex -14.897777478867205 7 -2.776457135307562
      vertex -14.509548911213423 8.448888739433603 2.776457135307562
      vertex -14.509548911213423 8.448888739433603 -2.776457135307562
    endloop
  endfacet
  facet normal -0.7071067811865476 0.7071067811865476 0
    outer loop
      vertex -14.509548911213423 8.448888739433603 -2.776457135307562
      vertex -13.448888739433603 9.509548911213423 2.776457135307562
      vertex -13.448888739433603 9.509548911213423 -2.776457135307562
    endloop
  endfacet
  facet normal -0.258819045102521 0.9659258262890682 0
    outer loop
      vertex -13.448888739433603 9.509548911213423 -2.776457135307562
      vertex -13.448888739433603 9.509548911213423 2.776457135307562
      vertex -12 9.897777478867205 -2.776457135307562
    endloop
  endfacet
  facet normal 0 0 -1
    outer loop
      vertex -12.67243160412604 7.3882285676537816 -4.897777478867205
      vertex 12.67243160412604 -7.3882285676537816 -4.897777478867205
      vertex -12.776457135307563 7 -4.897777478867205
    endloop
  endfacet
  facet normal 0 0 -1
    outer loop
      vertex -12.388228567653782 7.67243160412604 -4.897777478867205
      vertex 12.67243160412604 -7.3882285676537816 -4.897777478867205
      vertex -12.67243160412604 7.3882285676537816 -4.897777478867205
    endloop
  endfacet
  facet normal 0 0 -1
    outer loop
      vertex -12 7.776457135307562 -4.897777478867205
      vertex 12.67243160412604 -7.3882285676537816 -4.897777478867205
      vertex -12.388228567653782 7.67243160412604 -4.897777478867205
    endloop
  endfacet
  facet normal 0 0.5000000000000001 -0.8660254037844385
    outer loop
      vertex -12 7.776457135307562 -4.897777478867205
      vertex -12 9.121320343559642 -4.121320343559643
      vertex 12 7.776457135307562 -4.897777478867205
    endloop
  endfacet
  facet normal 0 0.8660254037844385 -0.5000000000000003
    outer loop
      vertex 12 9.897777478867205 -2.776457135307562
      vertex -12 9.121320343559642 -4.121320343559643
      vertex -12 9.897777478867205 -2.776457135307562
    endloop
  endfacet
  facet normal -0.8660254037844385 0 0.5000000000000003
    outer loop
      vertex -14.897777478867205 -7 2.776457135307562
      vertex -14.121320343559642 7 4.121320343559643
      vertex -14.897777478867205 7 2.776457135307562
    endloop
  endfacet
  facet normal -0.5000000000000003 0 0.8660254037844384
    outer loop
      vertex -14.121320343559642 7 4.121320343559643
      vertex -12.776457135307563 -7 4.897777478867205
      vertex -12.776457135307563 7 4.897777478867205
    endloop
  endfacet
  facet normal 0 0 1
    outer loop
      vertex -12.776457135307563 -7 4.897777478867205
      vertex -12.67243160412604 7.3882285676537816 4.897777478867205
      vertex -12.776457135307563 7 4.897777478867205
    endloop
  endfacet
  facet normal -0.9659258262890682 0.258819045102521 0
    outer loop
      vertex -14.897777478867205 7 2.776457135307562
      vertex -14.509548911213423 8.448888739433603 2.776457135307562
      vertex -14.897777478867205 7 -2.776457135307562
    endloop
  endfacet
  facet normal -0.7071067811865476 0.7071067811865476 0
    outer loop
      vertex -14.509548911213423 8.448888739433603 2.776457135307562
      vertex -13.448888739433603 9.509548911213423 2.776457135307562
      vertex -14.509548911213423 8.448888739433603 -2.776457135307562
    endloop
  endfacet
  facet normal -0.258819045102521 0.9659258262890682 0
    outer loop
      vertex -12 9.897777478867205 -2.776457135307562
      vertex -13.448888739433603 9.509548911213423 2.776457135307562
      vertex -12 9.897777478867205 2.776457135307562
    endloop
  endfacet
  facet normal -0.8436100229619509 0.22604462437945477 0.48705847384814904
    outer loop
      vertex -14.121320343559642 7 4.121320343559643
      vertex -13.837117307087384 8.060660171779821 4.121320343559643
      vertex -14.897777478867205 7 2.776457135307562
    endloop
  endfacet
  facet normal -0.4955722198350788 0.1327881760961077 0.8583562635740485
    outer loop
      vertex -12.776457135307563 7 4.897777478867205
      vertex -13.837117307087384 8.060660171779821 4.121320343559643
      vertex -14.121320343559642 7 4.121320343559643
    endloop
  endfacet
  facet normal -0.8436100229619509 0.22604462437945586 0.4870584738481483
    outer loop
      vertex -14.897777478867205 7 2.776457135307562
      vertex -13.837117307087384 8.060660171779821 4.121320343559643
      vertex -14.509548911213423 8.448888739433603 2.776457135307562
    endloop
  endfacet
  facet normal -0.6175653985824954 0.6175653985824954 0.4870584738481485
    outer loop
      vertex -14.509548911213423 8.448888739433603 2.776457135307562
      vertex -13.837117307087384 8.060660171779821 4.121320343559643
      vertex -13.448888739433603 9.509548911213423 2.776457135307562
    endloop
  endfacet
  facet normal -0.6175653985824952 0.6175653985824953 0.48705847384814854
    outer loop
      vertex -13.448888739433603 9.509548911213423 2.776457135307562
      vertex -13.837117307087384 8.060660171779821 4.121320343559643
      vertex -13.060660171779821 8.837117307087384 4.121320343559643
    endloop
  endfacet
  facet normal -0.22604462437945586 0.8436100229619509 0.4870584738481483
    outer loop
      vertex -13.448888739433603 9.509548911213423 2.776457135307562
      vertex -13.060660171779821 8.837117307087384 4.121320343559643
      vertex -12 9.897777478867205 2.776457135307562
    endloop
  endfacet
  facet normal -0.2260446243794548 0.8436100229619509 0.48705847384814904
    outer loop
      vertex -12 9.897777478867205 2.776457135307562
      vertex -13.060660171779821 8.837117307087384 4.121320343559643
      vertex -12 9.121320343559642 4.121320343559643
    endloop
  endfacet
  facet normal -0.4955722198350773 0.1327881760961096 0.8583562635740491
    outer loop
      vertex -12.776457135307563 7 4.897777478867205
      vertex -12.67243160412604 7.3882285676537816 4.897777478867205
      vertex -13.837117307087384 8.060660171779821 4.121320343559643
    endloop
  endfacet
  facet normal -0.36278404373897033 0.36278404373897033 0.8583562635740487
    outer loop
      vertex -13.837117307087384 8.060660171779821 4.121320343559643
      vertex -12.388228567653782 7.67243160412604 4.897777478867205
      vertex -13.060660171779821 8.837117307087384 4.121320343559643
    endloop
  endfacet
  facet normal -0.3627840437389707 0.3627840437389696 0.8583562635740488
    outer loop
      vertex -13.837117307087384 8.060660171779821 4.121320343559643
      vertex -12.67243160412604 7.3882285676537816 4.897777478867205
      vertex -12.388228567653782 7.67243160412604 4.897777478867205
    endloop
  endfacet
  facet normal 0 0 1
    outer loop
      vertex -12.388228567653782 7.67243160412604 4.897777478867205
      vertex -12.67243160412604 7.3882285676537816 4.897777478867205
      vertex -12 7.776457135307562 4.897777478867205
    endloop
  endfacet
  facet normal -0.1327881760961076 0.4955722198350785 0.8583562635740486
    outer loop
      vertex -12 9.121320343559642 4.121320343559643
      vertex -13.060660171779821 8.837117307087384 4.121320343559643
      vertex -12 7.776457135307562 4.897777478867205
    endloop
  endfacet
  facet normal -0.1327881760961076 0.49557221983507843 0.8583562635740487
    outer loop
      vertex -13.060660171779821 8.837117307087384 4.121320343559643
      vertex -12.388228567653782 7.67243160412604 4.897777478867205
      vertex -12 7.776457135307562 4.897777478867205
    endloop
  endfacet
  facet normal 0 1 0
    outer loop
      vertex 12 9.897777478867205 2.776457135307562
      vertex -12 9.897777478867205 -2.776457135307562
      vertex -12 9.897777478867205 2.776457135307562
    endloop
  endfacet
  facet normal 0 0.8660254037844385 0.5000000000000003
    outer loop
      vertex -12 9.897777478867205 2.776457135307562
      vertex -12 9.121320343559642 4.121320343559643
      vertex 12 9.897777478867205 2.776457135307562
    endloop
  endfacet
  facet normal 0 0 1
    outer loop
      vertex -12 7.776457135307562 4.897777478867205
      vertex -12.67243160412604 7.3882285676537816 4.897777478867205
      vertex 12 7.776457135307562 4.897777478867205
    endloop
  endfacet
  facet normal 0 0.5000000000000001 0.8660254037844385
    outer loop
      vertex 12 7.776457135307562 4.897777478867205
      vertex -12 9.121320343559642 4.121320343559643
      vertex -12 7.776457135307562 4.897777478867205
    endloop
  endfacet
  facet normal 0 -0.5000000000000001 -0.8660254037844385
    outer loop
      vertex 12 -9.121320343559642 -4.121320343559643
      vertex -12 -7.776457135307562 -4.897777478867205
      vertex 12 -7.776457135307562 -4.897777478867205
    endloop
  endfacet
  facet normal 0 0 -1
    outer loop
      vertex -12 -7.776457135307562 -4.897777478867205
      vertex 12.67243160412604 -7.3882285676537816 -4.897777478867205
      vertex 12 -7.776457135307562 -4.897777478867205
    endloop
  endfacet
  facet normal 0 -0.8660254037844385 -0.5000000000000003
    outer loop
      vertex 12 -9.897777478867205 -2.776457135307562
      vertex -12 -9.897777478867205 -2.776457135307562
      vertex 12 -9.121320343559642 -4.121320343559643
    endloop
  endfacet
  facet normal 0 -1 0
    outer loop
      vertex 12 -9.897777478867205 -2.776457135307562
      vertex 12 -9.897777478867205 2.776457135307562
      vertex -12 -9.897777478867205 -2.776457135307562
    endloop
  endfacet
  facet normal 0.13278817609610766 -0.4955722198350785 -0.8583562635740487
    outer loop
      vertex 12 -7.776457135307562 -4.897777478867205
      vertex 12.388228567653782 -7.67243160412604 -4.897777478867205
      vertex 13.060660171779821 -8.837117307087384 -4.121320343559643
    endloop
  endfacet
  facet normal 0.13278817609610763 -0.4955722198350785 -0.8583562635740486
    outer loop
      vertex 12 -7.776457135307562 -4.897777478867205
      vertex 13.060660171779821 -8.837117307087384 -4.121320343559643
      vertex 12 -9.121320343559642 -4.121320343559643
    endloop
  endfacet
  facet normal 0 0 -1
    outer loop
      vertex 12 -7.776457135307562 -4.897777478867205
      vertex 12.67243160412604 -7.3882285676537816 -4.897777478867205
      vertex 12.388228567653782 -7.67243160412604 -4.897777478867205
    endloop
  endfacet
  facet normal 0.36278404373897066 -0.36278404373896955 -0.8583562635740488
    outer loop
      vertex 12.388228567653782 -7.67243160412604 -4.897777478867205
      vertex 12.67243160412604 -7.3882285676537816 -4.897777478867205
      vertex 13.837117307087384 -8.060660171779821 -4.121320343559643
    endloop
  endfacet
  facet normal 0.36278404373897033 -0.36278404373897033 -0.8583562635740487
    outer loop
      vertex 13.060660171779821 -8.837117307087384 -4.121320343559643
      vertex 12.388228567653782 -7.67243160412604 -4.897777478867205
      vertex 13.837117307087384 -8.060660171779821 -4.121320343559643
    endloop
  endfacet
  facet normal 0.4955722198350772 -0.13278817609610946 -0.8583562635740491
    outer loop
      vertex 13.837117307087384 -8.060660171779821 -4.121320343559643
      vertex 12.67243160412604 -7.3882285676537816 -4.897777478867205
      vertex 12.776457135307563 -7 -4.897777478867205
    endloop
  endfacet
  facet normal 0.22604462437945477 -0.8436100229619509 -0.48705847384814904
    outer loop
      vertex 12 -9.121320343559642 -4.121320343559643
      vertex 13.060660171779821 -8.837117307087384 -4.121320343559643
      vertex 12 -9.897777478867205 -2.776457135307562
    endloop
  endfacet
  facet normal 0.22604462437945586 -0.8436100229619509 -0.4870584738481483
    outer loop
      vertex 12 -9.897777478867205 -2.776457135307562
      vertex 13.060660171779821 -8.837117307087384 -4.121320343559643
      vertex 13.448888739433603 -9.509548911213423 -2.776457135307562
    endloop
  endfacet
  facet normal 0.6175653985824953 -0.6175653985824953 -0.48705847384814843
    outer loop
      vertex 13.060660171779821 -8.837117307087384 -4.121320343559643
      vertex 13.837117307087384 -8.060660171779821 -4.121320343559643
      vertex 13.448888739433603 -9.509548911213423 -2.776457135307562
    endloop
  endfacet
  facet normal 0.6175653985824954 -0.6175653985824954 -0.4870584738481485
    outer loop
      vertex 13.448888739433603 -9.509548911213423 -2.776457135307562
      vertex 13.837117307087384 -8.060660171779821 -4.121320343559643
      vertex 14.509548911213423 -8.448888739433603 -2.776457135307562
    endloop
  endfacet
  facet normal 0.8436100229619509 -0.22604462437945586 -0.4870584738481483
    outer loop
      vertex 14.509548911213423 -8.448888739433603 -2.776457135307562
      vertex 13.837117307087384 -8.060660171779821 -4.121320343559643
      vertex 14.897777478867205 -7 -2.776457135307562
    endloop
  endfacet
  facet normal 0.4955722198350788 -0.1327881760961077 -0.8583562635740485
    outer loop
      vertex 12.776457135307563 -7 -4.897777478867205
      vertex 14.121320343559642 -7 -4.121320343559643
      vertex 13.837117307087384 -8.060660171779821 -4.121320343559643
    endloop
  endfacet
  facet normal 0.8436100229619509 -0.22604462437945477 -0.48705847384814904
    outer loop
      vertex 13.837117307087384 -8.060660171779821 -4.121320343559643
      vertex 14.121320343559642 -7 -4.121320343559643
      vertex 14.897777478867205 -7 -2.776457135307562
    endloop
  endfacet
  facet normal 0.258819045102521 -0.9659258262890682 0
    outer loop
      vertex 12 -9.897777478867205 -2.776457135307562
      vertex 13.448888739433603 -9.509548911213423 -2.776457135307562
      vertex 12 -9.897777478867205 2.776457135307562
    endloop
  endfacet
  facet normal 0.7071067811865476 -0.7071067811865476 0
    outer loop
      vertex 14.509548911213423 -8.448888739433603 -2.776457135307562
      vertex 14.509548911213423 -8.448888739433603 2.776457135307562
      vertex 13.448888739433603 -9.509548911213423 -2.776457135307562
    endloop
  endfacet
  facet normal 0.9659258262890682 -0.258819045102521 0
    outer loop
      vertex 14.897777478867205 -7 -2.776457135307562
      vertex 14.509548911213423 -8.448888739433603 2.776457135307562
      vertex 14.509548911213423 -8.448888739433603 -2.776457135307562
    endloop
  endfacet
  facet normal 0 0 -1
    outer loop
      vertex 12.776457135307563 -7 -4.897777478867205
      vertex 12.67243160412604 -7.3882285676537816 -4.897777478867205
      vertex 12.776457135307563 7 -4.897777478867205
    endloop
  endfacet
  facet normal 0.5000000000000003 0 -0.8660254037844384
    outer loop
      vertex 12.776457135307563 7 -4.897777478867205
      vertex 14.121320343559642 -7 -4.121320343559643
      vertex 12.776457135307563 -7 -4.897777478867205
    endloop
  endfacet
  facet normal 0.8660254037844385 0 -0.5000000000000003
    outer loop
      vertex 14.897777478867205 -7 -2.776457135307562
      vertex 14.121320343559642 -7 -4.121320343559643
      vertex 14.897777478867205 7 -2.776457135307562
    endloop
  endfacet
  facet normal 1 0 0
    outer loop
      vertex 14.897777478867205 7 -2.776457135307562
      vertex 14.897777478867205 -7 2.776457135307562
      vertex 14.897777478867205 -7 -2.776457135307562
    endloop
  endfacet
  facet normal 0 -0.8660254037844385 0.5000000000000003
    outer loop
      vertex 12 -9.121320343559642 4.121320343559643
      vertex -12 -9.121320343559642 4.121320343559643
      vertex 12 -9.897777478867205 2.776457135307562
    endloop
  endfacet
  facet normal 0 -0.5000000000000001 0.8660254037844385
    outer loop
      vertex 12 -7.776457135307562 4.897777478867205
      vertex -12 -9.121320343559642 4.121320343559643
      vertex 12 -9.121320343559642 4.121320343559643
    endloop
  endfacet
  facet normal 0 0 1
    outer loop
      vertex 12.388228567653782 -7.67243160412604 4.897777478867205
      vertex -12.67243160412604 7.3882285676537816 4.897777478867205
      vertex 12 -7.776457135307562 4.897777478867205
    endloop
  endfacet
  facet normal 0 0 1
    outer loop
      vertex 12.67243160412604 -7.3882285676537816 4.897777478867205
      vertex -12.67243160412604 7.3882285676537816 4.897777478867205
      vertex 12.388228567653782 -7.67243160412604 4.897777478867205
    endloop
  endfacet
  facet normal 0 0 1
    outer loop
      vertex 12.776457135307563 -7 4.897777478867205
      vertex -12.67243160412604 7.3882285676537816 4.897777478867205
      vertex 12.67243160412604 -7.3882285676537816 4.897777478867205
    endloop
  endfacet
  facet normal 0.258819045102521 -0.9659258262890682 0
    outer loop
      vertex 12 -9.897777478867205 2.776457135307562
      vertex 13.448888739433603 -9.509548911213423 -2.776457135307562
      vertex 13.448888739433603 -9.509548911213423 2.776457135307562
    endloop
  endfacet
  facet normal 0.7071067811865476 -0.7071067811865476 0
    outer loop
      vertex 13.448888739433603 -9.509548911213423 -2.776457135307562
      vertex 14.509548911213423 -8.448888739433603 2.776457135307562
      vertex 13.448888739433603 -9.509548911213423 2.776457135307562
    endloop
  endfacet
  facet normal 0.9659258262890682 -0.258819045102521 0
    outer loop
      vertex 14.897777478867205 -7 2.776457135307562
      vertex 14.509548911213423 -8.448888739433603 2.776457135307562
      vertex 14.897777478867205 -7 -2.776457135307562
    endloop
  endfacet
  facet normal 0.22604462437945586 -0.8436100229619509 0.4870584738481483
    outer loop
      vertex 13.448888739433603 -9.509548911213423 2.776457135307562
      vertex 13.060660171779821 -8.837117307087384 4.121320343559643
      vertex 12 -9.897777478867205 2.776457135307562
    endloop
  endfacet
  facet normal 0.2260446243794548 -0.8436100229619509 0.48705847384814904
    outer loop
      vertex 12 -9.897777478867205 2.776457135307562
      vertex 13.060660171779821 -8.837117307087384 4.121320343559643
      vertex 12 -9.121320343559642 4.121320343559643
    endloop
  endfacet
  facet normal 0.6175653985824954 -0.6175653985824954 0.4870584738481485
    outer loop
      vertex 14.509548911213423 -8.448888739433603 2.776457135307562
      vertex 13.837117307087384 -8.060660171779821 4.121320343559643
      vertex 13.448888739433603 -9.509548911213423 2.776457135307562
    endloop
  endfacet
  facet normal 0.6175653985824952 -0.6175653985824953 0.48705847384814854
    outer loop
      vertex 13.448888739433603 -9.509548911213423 2.776457135307562
      vertex 13.837117307087384 -8.060660171779821 4.121320343559643
      vertex 13.060660171779821 -8.837117307087384 4.121320343559643
    endloop
  endfacet
  facet normal 0.8436100229619509 -0.22604462437945586 0.4870584738481483
    outer loop
      vertex 14.897777478867205 -7 2.776457135307562
      vertex 13.837117307087384 -8.060660171779821 4.121320343559643
      vertex 14.509548911213423 -8.448888739433603 2.776457135307562
    endloop
  endfacet
  facet normal 0.1327881760961076 -0.4955722198350785 0.8583562635740486
    outer loop
      vertex 12 -9.121320343559642 4.121320343559643
      vertex 13.060660171779821 -8.837117307087384 4.121320343559643
      vertex 12 -7.776457135307562 4.897777478867205
    endloop
  endfacet
  facet normal 0.1327881760961076 -0.49557221983507843 0.8583562635740487
    outer loop
      vertex 13.060660171779821 -8.837117307087384 4.121320343559643
      vertex 12.388228567653782 -7.67243160412604 4.897777478867205
      vertex 12 -7.776457135307562 4.897777478867205
    endloop
  endfacet
  facet normal 0.36278404373897066 -0.36278404373896955 0.8583562635740488
    outer loop
      vertex 12.388228567653782 -7.67243160412604 4.897777478867205
      vertex 13.837117307087384 -8.060660171779821 4.121320343559643
      vertex 12.67243160412604 -7.3882285676537816 4.897777478867205
    endloop
  endfacet
  facet normal 0.36278404373897033 -0.36278404373897033 0.8583562635740487
    outer loop
      vertex 13.060660171779821 -8.837117307087384 4.121320343559643
      vertex 13.837117307087384 -8.060660171779821 4.121320343559643
      vertex 12.388228567653782 -7.67243160412604 4.897777478867205
    endloop
  endfacet
  facet normal 0.4955722198350773 -0.1327881760961096 0.8583562635740491
    outer loop
      vertex 12.67243160412604 -7.3882285676537816 4.897777478867205
      vertex 13.837117307087384 -8.060660171779821 4.121320343559643
      vertex 12.776457135307563 -7 4.897777478867205
    endloop
  endfacet
  facet normal 0.8436100229619509 -0.22604462437945477 0.48705847384814904
    outer loop
      vertex 14.121320343559642 -7 4.121320343559643
      vertex 13.837117307087384 -8.060660171779821 4.121320343559643
      vertex 14.897777478867205 -7 2.776457135307562
    endloop
  endfacet
  facet normal 0.4955722198350788 -0.1327881760961077 0.8583562635740485
    outer loop
      vertex 12.776457135307563 -7 4.897777478867205
      vertex 13.837117307087384 -8.060660171779821 4.121320343559643
      vertex 14.121320343559642 -7 4.121320343559643
    endloop
  endfacet
  facet normal 0.8660254037844385 0 0.5000000000000003
    outer loop
      vertex 14.897777478867205 7 2.776457135307562
      vertex 14.121320343559642 -7 4.121320343559643
      vertex 14.897777478867205 -7 2.776457135307562
    endloop
  endfacet
  facet normal 0.5000000000000003 0 0.8660254037844384
    outer loop
      vertex 12.776457135307563 -7 4.897777478867205
      vertex 14.121320343559642 -7 4.121320343559643
      vertex 12.776457135307563 7 4.897777478867205
    endloop
  endfacet
  facet normal 0 0 -1
    outer loop
      vertex 12 7.776457135307562 -4.897777478867205
      vertex 12.67243160412604 -7.3882285676537816 -4.897777478867205
      vertex -12 7.776457135307562 -4.897777478867205
    endloop
  endfacet
  facet normal 0 0.5000000000000001 -0.8660254037844385
    outer loop
      vertex 12 7.776457135307562 -4.897777478867205
      vertex -12 9.121320343559642 -4.121320343559643
      vertex 12 9.121320343559642 -4.121320343559643
    endloop
  endfacet
  facet normal 0 0.8660254037844385 -0.5000000000000003
    outer loop
      vertex 12 9.121320343559642 -4.121320343559643
      vertex -12 9.121320343559642 -4.121320343559643
      vertex 12 9.897777478867205 -2.776457135307562
    endloop
  endfacet
  facet normal 0 1 0
    outer loop
      vertex 12 9.897777478867205 -2.776457135307562
      vertex -12 9.897777478867205 -2.776457135307562
      vertex 12 9.897777478867205 2.776457135307562
    endloop
  endfacet
  facet normal 0 0 -1
    outer loop
      vertex 12.776457135307563 7 -4.897777478867205
      vertex 12.67243160412604 -7.3882285676537816 -4.897777478867205
      vertex 12.67243160412604 7.3882285676537816 -4.897777478867205
    endloop
  endfacet
  facet normal 0.5000000000000003 0 -0.8660254037844384
    outer loop
      vertex 14.121320343559642 7 -4.121320343559643
      vertex 14.121320343559642 -7 -4.121320343559643
      vertex 12.776457135307563 7 -4.897777478867205
    endloop
  endfacet
  facet normal 0.8660254037844385 0 -0.5000000000000003
    outer loop
      vertex 14.897777478867205 7 -2.776457135307562
      vertex 14.121320343559642 -7 -4.121320343559643
      vertex 14.121320343559642 7 -4.121320343559643
    endloop
  endfacet
  facet normal 0 0 -1
    outer loop
      vertex 12.388228567653782 7.67243160412604 -4.897777478867205
      vertex 12.67243160412604 -7.3882285676537816 -4.897777478867205
      vertex 12 7.776457135307562 -4.897777478867205
    endloop
  endfacet
  facet normal 0 0 -1
    outer loop
      vertex 12.67243160412604 7.3882285676537816 -4.897777478867205
      vertex 12.67243160412604 -7.3882285676537816 -4.897777478867205
      vertex 12.388228567653782 7.67243160412604 -4.897777478867205
    endloop
  endfacet
  facet normal 0.4955722198350788 0.1327881760961077 -0.8583562635740485
    outer loop
      vertex 12.776457135307563 7 -4.897777478867205
      vertex 13.837117307087384 8.060660171779821 -4.121320343559643
      vertex 14.121320343559642 7 -4.121320343559643
    endloop
  endfacet
  facet normal 0.8436100229619509 0.22604462437945477 -0.48705847384814904
    outer loop
      vertex 14.121320343559642 7 -4.121320343559643
      vertex 13.837117307087384 8.060660171779821 -4.121320343559643
      vertex 14.897777478867205 7 -2.776457135307562
    endloop
  endfacet
  facet normal 0.36278404373897066 0.36278404373896955 -0.8583562635740488
    outer loop
      vertex 12.388228567653782 7.67243160412604 -4.897777478867205
      vertex 13.837117307087384 8.060660171779821 -4.121320343559643
      vertex 12.67243160412604 7.3882285676537816 -4.897777478867205
    endloop
  endfacet
  facet normal 0.13278817609610766 0.4955722198350785 -0.8583562635740487
    outer loop
      vertex 12 7.776457135307562 -4.897777478867205
      vertex 13.060660171779821 8.837117307087384 -4.121320343559643
      vertex 12.388228567653782 7.67243160412604 -4.897777478867205
    endloop
  endfacet
  facet normal 0.1327881760961076 0.4955722198350785 -0.8583562635740486
    outer loop
      vertex 12 9.121320343559642 -4.121320343559643
      vertex 13.060660171779821 8.837117307087384 -4.121320343559643
      vertex 12 7.776457135307562 -4.897777478867205
    endloop
  endfacet
  facet normal 0.4955722198350773 0.1327881760961096 -0.8583562635740491
    outer loop
      vertex 12.67243160412604 7.3882285676537816 -4.897777478867205
      vertex 13.837117307087384 8.060660171779821 -4.121320343559643
      vertex 12.776457135307563 7 -4.897777478867205
    endloop
  endfacet
  facet normal 0.36278404373897033 0.36278404373897033 -0.8583562635740487
    outer loop
      vertex 13.060660171779821 8.837117307087384 -4.121320343559643
      vertex 13.837117307087384 8.060660171779821 -4.121320343559643
      vertex 12.388228567653782 7.67243160412604 -4.897777478867205
    endloop
  endfacet
  facet normal 0.2260446243794548 0.8436100229619509 -0.48705847384814904
    outer loop
      vertex 12 9.897777478867205 -2.776457135307562
      vertex 13.060660171779821 8.837117307087384 -4.121320343559643
      vertex 12 9.121320343559642 -4.121320343559643
    endloop
  endfacet
  facet normal 0.22604462437945586 0.8436100229619509 -0.4870584738481483
    outer loop
      vertex 12 9.897777478867205 -2.776457135307562
      vertex 13.448888739433603 9.509548911213423 -2.776457135307562
      vertex 13.060660171779821 8.837117307087384 -4.121320343559643
    endloop
  endfacet
  facet normal 0.8436100229619509 0.22604462437945586 -0.4870584738481483
    outer loop
      vertex 14.897777478867205 7 -2.776457135307562
      vertex 13.837117307087384 8.060660171779821 -4.121320343559643
      vertex 14.509548911213423 8.448888739433603 -2.776457135307562
    endloop
  endfacet
  facet normal 0.6175653985824952 0.6175653985824953 -0.48705847384814854
    outer loop
      vertex 13.448888739433603 9.509548911213423 -2.776457135307562
      vertex 13.837117307087384 8.060660171779821 -4.121320343559643
      vertex 13.060660171779821 8.837117307087384 -4.121320343559643
    endloop
  endfacet
  facet normal 0.6175653985824954 0.6175653985824954 -0.4870584738481485
    outer loop
      vertex 14.509548911213423 8.448888739433603 -2.776457135307562
      vertex 13.837117307087384 8.060660171779821 -4.121320343559643
      vertex 13.448888739433603 9.509548911213423 -2.776457135307562
    endloop
  endfacet
  facet normal 0.258819045102521 0.9659258262890682 0
    outer loop
      vertex 12 9.897777478867205 2.776457135307562
      vertex 13.448888739433603 9.509548911213423 -2.776457135307562
      vertex 12 9.897777478867205 -2.776457135307562
    endloop
  endfacet
  facet normal 0.9659258262890682 0.258819045102521 0
    outer loop
      vertex 14.509548911213423 8.448888739433603 -2.776457135307562
      vertex 14.509548911213423 8.448888739433603 2.776457135307562
      vertex 14.897777478867205 7 -2.776457135307562
    endloop
  endfacet
  facet normal 0.7071067811865476 0.7071067811865476 0
    outer loop
      vertex 14.509548911213423 8.448888739433603 -2.776457135307562
      vertex 13.448888739433603 9.509548911213423 -2.776457135307562
      vertex 14.509548911213423 8.448888739433603 2.776457135307562
    endloop
  endfacet
  facet normal 0 0 1
    outer loop
      vertex 12.776457135307563 7 4.897777478867205
      vertex -12.67243160412604 7.3882285676537816 4.897777478867205
      vertex 12.776457135307563 -7 4.897777478867205
    endloop
  endfacet
  facet normal 0 0 1
    outer loop
      vertex 12.67243160412604 7.3882285676537816 4.897777478867205
      vertex -12.67243160412604 7.3882285676537816 4.897777478867205
      vertex 12.776457135307563 7 4.897777478867205
    endloop
  endfacet
  facet normal 0 0.8660254037844385 0.5000000000000003
    outer loop
      vertex 12 9.897777478867205 2.776457135307562
      vertex -12 9.121320343559642 4.121320343559643
      vertex 12 9.121320343559642 4.121320343559643
    endloop
  endfacet
  facet normal 0 0 1
    outer loop
      vertex 12 7.776457135307562 4.897777478867205
      vertex -12.67243160412604 7.3882285676537816 4.897777478867205
      vertex 12.388228567653782 7.67243160412604 4.897777478867205
    endloop
  endfacet
  facet normal 0 0 1
    outer loop
      vertex 12.388228567653782 7.67243160412604 4.897777478867205
      vertex -12.67243160412604 7.3882285676537816 4.897777478867205
      vertex 12.67243160412604 7.3882285676537816 4.897777478867205
    endloop
  endfacet
  facet normal 0 0.5000000000000001 0.8660254037844385
    outer loop
      vertex 12 9.121320343559642 4.121320343559643
      vertex -12 9.121320343559642 4.121320343559643
      vertex 12 7.776457135307562 4.897777478867205
    endloop
  endfacet
  facet normal 1 0 0
    outer loop
      vertex 14.897777478867205 7 2.776457135307562
      vertex 14.897777478867205 -7 2.776457135307562
      vertex 14.897777478867205 7 -2.776457135307562
    endloop
  endfacet
  facet normal 0.8660254037844385 0 0.5000000000000003
    outer loop
      vertex 14.121320343559642 7 4.121320343559643
      vertex 14.121320343559642 -7 4.121320343559643
      vertex 14.897777478867205 7 2.776457135307562
    endloop
  endfacet
  facet normal 0.5000000000000003 0 0.8660254037844384
    outer loop
      vertex 12.776457135307563 7 4.897777478867205
      vertex 14.121320343559642 -7 4.121320343559643
      vertex 14.121320343559642 7 4.121320343559643
    endloop
  endfacet
  facet normal 0.258819045102521 0.9659258262890682 0
    outer loop
      vertex 13.448888739433603 9.509548911213423 2.776457135307562
      vertex 13.448888739433603 9.509548911213423 -2.776457135307562
      vertex 12 9.897777478867205 2.776457135307562
    endloop
  endfacet
  facet normal 0.9659258262890682 0.258819045102521 0
    outer loop
      vertex 14.897777478867205 7 -2.776457135307562
      vertex 14.509548911213423 8.448888739433603 2.776457135307562
      vertex 14.897777478867205 7 2.776457135307562
    endloop
  endfacet
  facet normal 0.7071067811865476 0.7071067811865476 0
    outer loop
      vertex 14.509548911213423 8.448888739433603 2.776457135307562
      vertex 13.448888739433603 9.509548911213423 -2.776457135307562
      vertex 13.448888739433603 9.509548911213423 2.776457135307562
    endloop
  endfacet
  facet normal 0.8436100229619509 0.2260446243794548 0.48705847384814904
    outer loop
      vertex 14.897777478867205 7 2.776457135307562
      vertex 13.837117307087384 8.060660171779821 4.121320343559643
      vertex 14.121320343559642 7 4.121320343559643
    endloop
  endfacet
  facet normal 0.4955722198350788 0.13278817609610769 0.8583562635740485
    outer loop
      vertex 14.121320343559642 7 4.121320343559643
      vertex 13.837117307087384 8.060660171779821 4.121320343559643
      vertex 12.776457135307563 7 4.897777478867205
    endloop
  endfacet
  facet normal 0.22604462437945586 0.8436100229619509 0.4870584738481483
    outer loop
      vertex 12 9.897777478867205 2.776457135307562
      vertex 13.060660171779821 8.837117307087384 4.121320343559643
      vertex 13.448888739433603 9.509548911213423 2.776457135307562
    endloop
  endfacet
  facet normal 0.22604462437945477 0.8436100229619509 0.48705847384814904
    outer loop
      vertex 12 9.121320343559642 4.121320343559643
      vertex 13.060660171779821 8.837117307087384 4.121320343559643
      vertex 12 9.897777478867205 2.776457135307562
    endloop
  endfacet
  facet normal 0.6175653985824953 0.6175653985824952 0.48705847384814854
    outer loop
      vertex 14.509548911213423 8.448888739433603 2.776457135307562
      vertex 13.060660171779821 8.837117307087384 4.121320343559643
      vertex 13.837117307087384 8.060660171779821 4.121320343559643
    endloop
  endfacet
  facet normal 0.8436100229619509 0.22604462437945586 0.4870584738481483
    outer loop
      vertex 14.509548911213423 8.448888739433603 2.776457135307562
      vertex 13.837117307087384 8.060660171779821 4.121320343559643
      vertex 14.897777478867205 7 2.776457135307562
    endloop
  endfacet
  facet normal 0.6175653985824954 0.6175653985824954 0.4870584738481485
    outer loop
      vertex 13.448888739433603 9.509548911213423 2.776457135307562
      vertex 13.060660171779821 8.837117307087384 4.121320343559643
      vertex 14.509548911213423 8.448888739433603 2.776457135307562
    endloop
  endfacet
  facet normal 0.36278404373897066 0.36278404373896955 0.8583562635740488
    outer loop
      vertex 12.388228567653782 7.67243160412604 4.897777478867205
      vertex 12.67243160412604 7.3882285676537816 4.897777478867205
      vertex 13.837117307087384 8.060660171779821 4.121320343559643
    endloop
  endfacet
  facet normal 0.1327881760961076 0.4955722198350785 0.8583562635740486
    outer loop
      vertex 12 9.121320343559642 4.121320343559643
      vertex 12 7.776457135307562 4.897777478867205
      vertex 13.060660171779821 8.837117307087384 4.121320343559643
    endloop
  endfacet
  facet normal 0.1327881760961076 0.49557221983507843 0.8583562635740487
    outer loop
      vertex 13.060660171779821 8.837117307087384 4.121320343559643
      vertex 12 7.776457135307562 4.897777478867205
      vertex 12.388228567653782 7.67243160412604 4.897777478867205
    endloop
  endfacet
  facet normal 0.4955722198350772 0.13278817609610946 0.8583562635740491
    outer loop
      vertex 13.837117307087384 8.060660171779821 4.121320343559643
      vertex 12.67243160412604 7.3882285676537816 4.897777478867205
      vertex 12.776457135307563 7 4.897777478867205
    endloop
  endfacet
  facet normal 0.36278404373897033 0.36278404373897033 0.8583562635740487
    outer loop
      vertex 13.837117307087384 8.060660171779821 4.121320343559643
      vertex 13.060660171779821 8.837117307087384 4.121320343559643
      vertex 12.388228567653782 7.67243160412604 4.897777478867205
    endloop
  endfacet
endsolid PythonSCAD_Model
